<svg xmlns="http://www.w3.org/2000/svg" viewBox="0 0 1024 1024" fill="none">
  <g fill="#2b2116" opacity="0.3">
    <path d="M0 0h1024v74c-42-14-82-8-124 4-54 16-90-20-144-16-62 4-106 44-166 24-72-24-116-76-188-42-46 22-84 28-132 6C178 8 94 30 0 0Z"/>
    <path d="M0 1024h1024v-68c-80 18-142-20-214-8-66 10-98 58-166 40-86-22-144-68-230-32-64 26-112 14-174-16-80-40-154 24-240 84Z"/>
    <path d="M0 0h70c-10 78 28 128 10 208-18 82-66 126-38 210 22 66 52 112 18 182-34 72-62 112-30 196 26 70 8 146-30 228V0Z"/>
    <path d="M1024 0h-72c18 86-18 150-4 224 14 72 70 112 42 194-24 72-62 118-30 196 34 82 58 136 18 218-34 68 4 124 46 192V0Z"/>
  </g>
  <g stroke="#2b2116" stroke-width="7" stroke-linecap="round" opacity="0.18">
    <path d="M108 62c44 14 80 14 126-4M380 44c74 34 144 26 216-8M728 58c66-18 112-10 170 16"/>
    <path d="M96 958c72-18 132-22 194 10M418 978c92-38 162-34 246 6M782 958c46 18 88 18 142 0"/>
    <path d="M54 142c12 62 10 108-8 166M50 472c22 76 16 132-12 200M60 816c-18 46-18 88-2 132"/>
    <path d="M968 106c-24 68-24 126-2 188M970 440c-20 72-18 130 10 200M960 790c22 52 24 102 8 152"/>
  </g>
</svg>
